<mxfile host="app.diagrams.net" agent="Mozilla/5.0 (Windows NT 10.0; Win64; x64) AppleWebKit/537.36 (KHTML, like Gecko) Chrome/134.0.0.0 Safari/537.36" version="26.1.1">
  <diagram name="Page-1" id="ugFlNR8z2zTQlDkHk_9h">
    <mxGraphModel dx="1290" dy="557" grid="1" gridSize="10" guides="1" tooltips="1" connect="1" arrows="1" fold="1" page="1" pageScale="1" pageWidth="827" pageHeight="1169" math="0" shadow="0">
      <root>
        <mxCell id="0" />
        <mxCell id="1" parent="0" />
        <mxCell id="9S_UlMoYAAx8TZQhM4NM-1" value="Exhibit Information and Interaction" style="shape=umlFrame;whiteSpace=wrap;html=1;pointerEvents=0;recursiveResize=0;container=1;collapsible=0;width=160;" parent="1" vertex="1">
          <mxGeometry x="124" y="250" width="580" height="370" as="geometry" />
        </mxCell>
        <mxCell id="9S_UlMoYAAx8TZQhM4NM-12" value="Provide personalized routes through preferences" style="ellipse;whiteSpace=wrap;html=1;" parent="9S_UlMoYAAx8TZQhM4NM-1" vertex="1">
          <mxGeometry x="386" y="130" width="150" height="100" as="geometry" />
        </mxCell>
        <mxCell id="9S_UlMoYAAx8TZQhM4NM-14" value="User" style="shape=umlActor;verticalLabelPosition=bottom;verticalAlign=top;html=1;" parent="9S_UlMoYAAx8TZQhM4NM-1" vertex="1">
          <mxGeometry x="-60" y="150" width="30" height="60" as="geometry" />
        </mxCell>
        <mxCell id="9S_UlMoYAAx8TZQhM4NM-32" value="View Exhibit Information" style="ellipse;whiteSpace=wrap;html=1;" parent="9S_UlMoYAAx8TZQhM4NM-1" vertex="1">
          <mxGeometry x="126" y="40" width="74" height="50" as="geometry" />
        </mxCell>
        <mxCell id="9S_UlMoYAAx8TZQhM4NM-34" value="List audio transcript" style="ellipse;whiteSpace=wrap;html=1;" parent="9S_UlMoYAAx8TZQhM4NM-1" vertex="1">
          <mxGeometry x="290" y="20" width="74" height="50" as="geometry" />
        </mxCell>
        <mxCell id="9S_UlMoYAAx8TZQhM4NM-35" value="View all Exhibits" style="ellipse;whiteSpace=wrap;html=1;" parent="9S_UlMoYAAx8TZQhM4NM-1" vertex="1">
          <mxGeometry x="26" y="40" width="74" height="50" as="geometry" />
        </mxCell>
        <mxCell id="9S_UlMoYAAx8TZQhM4NM-37" value="Search Exhibits" style="ellipse;whiteSpace=wrap;html=1;" parent="9S_UlMoYAAx8TZQhM4NM-1" vertex="1">
          <mxGeometry x="196" y="110" width="74" height="50" as="geometry" />
        </mxCell>
        <mxCell id="9S_UlMoYAAx8TZQhM4NM-38" value="Rate Exhibits" style="ellipse;whiteSpace=wrap;html=1;" parent="9S_UlMoYAAx8TZQhM4NM-1" vertex="1">
          <mxGeometry x="170" y="200" width="66" height="50" as="geometry" />
        </mxCell>
        <mxCell id="9S_UlMoYAAx8TZQhM4NM-39" value="Favourite Exhibits" style="ellipse;whiteSpace=wrap;html=1;" parent="9S_UlMoYAAx8TZQhM4NM-1" vertex="1">
          <mxGeometry x="16" y="240" width="74" height="50" as="geometry" />
        </mxCell>
        <mxCell id="9S_UlMoYAAx8TZQhM4NM-40" value="Change language" style="ellipse;whiteSpace=wrap;html=1;" parent="9S_UlMoYAAx8TZQhM4NM-1" vertex="1">
          <mxGeometry x="96" y="230" width="74" height="50" as="geometry" />
        </mxCell>
        <mxCell id="WeGpHFScTTGY2h0t6W2n-1" value="&amp;lt;&amp;lt;include&amp;gt;&amp;gt;" style="html=1;verticalAlign=bottom;labelBackgroundColor=none;endArrow=open;endFill=0;dashed=1;rounded=0;exitX=1;exitY=0.5;exitDx=0;exitDy=0;" edge="1" parent="9S_UlMoYAAx8TZQhM4NM-1" source="9S_UlMoYAAx8TZQhM4NM-32" target="9S_UlMoYAAx8TZQhM4NM-34">
          <mxGeometry width="160" relative="1" as="geometry">
            <mxPoint x="206" y="140" as="sourcePoint" />
            <mxPoint x="366" y="140" as="targetPoint" />
          </mxGeometry>
        </mxCell>
        <mxCell id="9S_UlMoYAAx8TZQhM4NM-15" value="System" style="shape=umlActor;verticalLabelPosition=bottom;verticalAlign=top;html=1;" parent="1" vertex="1">
          <mxGeometry x="740" y="370" width="30" height="60" as="geometry" />
        </mxCell>
        <mxCell id="9S_UlMoYAAx8TZQhM4NM-18" value="" style="endArrow=open;endFill=1;endSize=12;html=1;rounded=0;entryX=1;entryY=0.5;entryDx=0;entryDy=0;" parent="1" source="9S_UlMoYAAx8TZQhM4NM-15" target="9S_UlMoYAAx8TZQhM4NM-12" edge="1">
          <mxGeometry width="160" relative="1" as="geometry">
            <mxPoint x="320" y="970" as="sourcePoint" />
            <mxPoint x="480" y="970" as="targetPoint" />
          </mxGeometry>
        </mxCell>
      </root>
    </mxGraphModel>
  </diagram>
</mxfile>
